# xmcd
#
# Track frame offsets: 
#        150
#        15085
#        37945
#        52316
#        70554
#
# Disc length: 1066 seconds
#
# Revision: 0
# Processed by: cddbd v1.5.2PL0 Copyright (c) Steve Scherf et al.
# Submitted via: ExactAudioCopy v0.99pb4
#
DISCID=32042805
DTITLE=BT And The Cleverboys - Cant Get Enough
DYEAR=1998
DGENRE=Blues
TTITLE0=The Wanking Man
TTITLE1=I Cant get enough of You
TTITLE2=Moving And Grooving
TTITLE3=You Cannot Buy Me
TTITLE4=Reelin And Rocking
EXTD=
EXTT0=
EXTT1=
EXTT2=
EXTT3=
EXTT4=
PLAYORDER=
